<?xml version="1.0" encoding="utf-8"?>
<!-- Generator: Adobe Illustrator 27.5.0, SVG Export Plug-In . SVG Version: 6.00 Build 0)  -->
<svg version="1.1" id="Layer_1" xmlns="http://www.w3.org/2000/svg" xmlns:xlink="http://www.w3.org/1999/xlink" x="0px" y="0px"
	 viewBox="0 0 4000 4000" style="enable-background:new 0 0 4000 4000;" xml:space="preserve">
<g>
	<g>
		<rect style="fill:#F4B75D;" width="4000" height="4000"/>
	</g>
	<g>
		<g>
			<polyline style="fill:#650000;" points="2190.177,1175.862 2190.177,1060.354 1800.549,1006.075 1800.549,927.541 
				2259.748,1006.075 2265.315,1179.712 			"/>
		</g>
		<g>
			<g>
				<path style="fill:#E04805;" d="M3057.047,2383.928c1.67,55.059-28.225,102.713-72.261,127.264l-1.614,0.891l-266.719,158.996
					l-6.736,4.009c-25.831,14.474-56.562,20.932-88.572,16.256l-1423.448-206.427c-40.083-5.846-76.714-21.378-107.556-44.092
					c-57.898-42.477-95.475-110.117-97.814-186.052l-25.998-851.263c-1.893-62.073,30.396-116.074,78.719-145.691l4.175-2.45
					l259.036-153.54v0.055c33.514-24.829,76.547-37.244,121.808-30.674l1455.57,211.159
					c80.055,11.635,140.235,79.052,142.74,159.942l13.361,438.853L3057.047,2383.928z"/>
				<path style="fill:#650000;" d="M2641.855,2695.642c-6.999,0-14.049-0.513-21.113-1.544L1197.297,2487.67
					c-39.352-5.739-76.976-21.163-108.807-44.604c-29.136-21.376-53.531-49.528-70.547-81.41
					c-17.683-33.132-27.237-69.064-28.4-106.798l-25.998-851.264c-0.925-30.325,6.295-60.221,20.878-86.454
					c14.028-25.233,34.488-46.567,59.168-61.694l4.223-2.478l259.28-153.685c35.698-26.252,79.487-37.198,123.371-30.828
					l1455.57,211.159c81.538,11.851,142.571,80.238,145.123,162.611l13.36,438.854l15.31,502.765
					c1.632,53.801-26.604,103.529-73.688,129.778l-1.625,0.896l-266.638,158.949l-6.738,4.011
					C2689.695,2689.497,2666.084,2695.642,2641.855,2695.642z M1305.476,1106.715l-254.834,151.049l-4.187,2.456
					c-49.459,30.314-79.113,85.197-77.345,143.204l25.998,851.263c2.263,73.449,37.5,140.476,96.679,183.894
					c31.102,22.904,67.862,37.974,106.311,43.58l1423.446,206.428c30.3,4.43,60.316-1.081,86.813-15.93l6.673-3.972l266.718-158.995
					l1.694-0.938c45.25-25.227,72.392-73.026,70.823-124.741v0.001l-15.31-502.764l-13.36-438.854
					c-2.468-79.668-61.497-145.812-140.358-157.272l-1455.569-211.159c-42.626-6.188-85.152,4.523-119.751,30.155l-4.44,3.29
					V1106.715z"/>
			</g>
		</g>
		<g style="opacity:0.3;">
			<path style="fill:#650000;" d="M3057.047,2383.928c1.67,55.059-28.225,102.713-72.261,127.264l-1.614,0.891l-266.719,158.996
				l-6.736,4.009c-25.831,14.474-56.562,20.932-88.572,16.256l-1423.448-206.427c-40.083-5.846-76.714-21.378-107.556-44.092
				l235.989-200.081l-14.53-18.427c-57.397-57.285-31.677-146.916-31.677-146.916c48.267,154.042,257.979,176.31,257.979,176.31
				c812.405,140.569,1507.845,181.821,1503.837-370.545L3057.047,2383.928z"/>
		</g>
		<g style="opacity:0.6;">
			<g>
				<path style="fill:#FFFFFF;" d="M3027.875,1433.349c-22.38-51.941-70.424-90.521-129.156-99.039l-1455.57-211.16
					c-45.26-6.569-88.294,5.845-121.808,30.675v-0.056l-259.037,153.54l-4.175,2.449c-48.322,29.617-80.611,83.618-78.719,145.691
					l25.998,851.263c0.278,8.462,0.946,16.868,2.116,25.108c-9.074-24.161-14.363-50.104-15.198-77.049l-25.998-851.263
					c-1.893-62.073,30.396-116.074,78.719-145.691l4.175-2.45l259.036-153.54v0.055c33.514-24.829,76.547-37.244,121.808-30.674
					l1455.57,211.159C2962.74,1293.559,3021.362,1356.523,3027.875,1433.349z"/>
			</g>
		</g>
		<g>
			<path style="fill:#650000;" d="M2641.906,2715.132c-7.95,0-15.957-0.582-23.981-1.755L1194.5,2506.953
				c-126.148-18.344-220.532-124.114-224.432-251.5l-25.998-851.265c-1.032-33.838,7.033-67.212,23.323-96.516
				c15.654-28.159,38.482-51.964,66.017-68.841c0.123-0.075,0.246-0.148,0.371-0.222l4.138-2.428l258.435-153.184
				c39.702-28.882,88.253-40.888,136.911-33.826l1455.569,211.159c90.911,13.212,158.956,89.455,161.801,181.29l28.67,941.629
				c0,0.001,0,0.002,0,0.003c1.854,61.104-30.209,117.58-83.676,147.388l-1.371,0.757l-266.402,158.808l-6.751,4.018
				c-0.166,0.099-0.333,0.195-0.502,0.29C2696.269,2708.148,2669.438,2715.132,2641.906,2715.132z M1056.51,1276.911
				c-43.455,26.721-69.478,74.95-67.924,125.919l25.998,851.262c3.237,105.751,81.595,193.559,186.316,208.787l1423.44,206.426
				c25.937,3.793,51.595-0.885,74.247-13.508l6.478-3.854l266.704-158.988c0.213-0.127,0.428-0.25,0.646-0.37l1.613-0.891
				c38.793-21.626,62.107-62.679,60.761-107.09l-28.67-941.614c-2.175-70.195-54.192-128.483-123.686-138.583l-1455.564-211.158
				c-37.499-5.446-74.916,3.978-105.354,26.528c-1.013,0.751-2.076,1.406-3.177,1.965l-257.761,152.784
				c-0.029,0.018-0.059,0.035-0.089,0.052L1056.51,1276.911z"/>
		</g>
		<g>
			<path style="fill:#650000;" d="M2916.819,2548.357c-7.739,0-15.524-0.558-23.325-1.68l-115.483-16.759l-1308.042-189.727
				c-60.237-8.734-115.738-38.561-156.275-83.984c-40.545-45.431-63.884-103.958-65.717-164.8l-20.877-685.079l-4.844-157.934
				l-0.276-8.179c-1.837-60.519,26.087-118.063,74.695-154.001c8.653-6.397,20.854-4.568,27.252,4.085
				c6.397,8.652,4.568,20.854-4.085,27.251c-38.337,28.343-60.36,73.732-58.913,121.416l0.276,8.172l4.846,157.998l20.877,685.09
				c3.229,107.115,82.561,196.019,188.634,211.398l1308.044,189.727l115.463,16.757c26,3.74,51.861-0.799,74.771-13.132l1.534-0.847
				c9.424-5.199,21.276-1.773,26.474,7.647c5.198,9.423,1.774,21.275-7.648,26.474l-1.614,0.891c-0.054,0.03-0.108,0.06-0.163,0.089
				C2968.968,2541.881,2943.193,2548.357,2916.819,2548.357z"/>
		</g>
		<g>
			<path style="fill:#650000;" d="M2517.986,1899.022c-46.861,0.001-97.642-3.089-152.979-9.266
				c-96.487-10.771-210.316-31.256-358.227-64.47c-84.845-19.046-160.578-43.447-225.097-72.524
				c-58.931-26.559-110.543-57.95-153.403-93.303c-127.865-105.424-161.541-230.06-188.6-330.206
				c-8.104-29.995-15.76-58.326-25.124-82.794c-27.322-71.41-53.555-101.975-70.75-115.041
				c-15.226-11.569-24.823-10.687-26.206-10.484c-11.337,3.186-23.309-3.051-27.107-14.341
				c-3.924-11.656,2.345-24.285,14.001-28.209c4.289-1.442,27.238-7.661,57.932,11.777c35.044,22.193,66.578,69.424,93.727,140.381
				c10.173,26.581,18.114,55.975,26.522,87.094c26.732,98.936,57.031,211.071,173.941,307.463
				c85.113,70.204,202.844,121.471,359.921,156.732c224.574,50.429,456.783,92.878,633.772,62.296
				c168.681-29.147,279.654-123.166,349.166-295.836c0.108-0.308,0.224-0.613,0.346-0.915c3.504-8.681,6.944-17.69,10.225-26.78
				c4.176-11.567,16.936-17.559,28.506-13.387c11.568,4.175,17.562,16.938,13.387,28.506c-3.361,9.313-6.885,18.557-10.478,27.487
				c-0.102,0.288-0.21,0.574-0.323,0.857c-38.998,97.197-89.794,170.617-155.291,224.455
				c-62.303,51.213-136.867,83.76-227.954,99.499C2615.418,1895.354,2569.029,1899.021,2517.986,1899.022z M1317.442,1120.961
				L1317.442,1120.961L1317.442,1120.961z M1318.702,1120.596c-0.015,0.004-0.027,0.009-0.042,0.014
				C1318.674,1120.604,1318.688,1120.6,1318.702,1120.596z"/>
		</g>
		<g>
			<path style="fill:#650000;" d="M2496.564,1810.861c-68.63,0-144.169-5.512-225.345-16.464
				c-176.745-23.848-366.908-73.195-473.197-122.796c-47.458-22.147-90.231-52.192-127.132-89.301
				c-31.403-31.58-59.376-69.137-83.141-111.625c-42.962-76.808-65.043-156.853-79.654-209.819l-0.131-0.473
				c-28.177-102.141-91.905-175.594-92.546-176.324c-7.097-8.089-6.292-20.4,1.798-27.497c8.089-7.096,20.399-6.292,27.497,1.798
				c2.855,3.255,70.288,80.993,100.817,191.66l0.131,0.473c28.807,104.426,82.428,298.803,268.84,385.794
				c103.069,48.099,288.704,96.118,461.928,119.49c213.465,28.802,384.266,18.787,480.942-28.196
				c89.431-43.464,155.148-117.592,195.326-220.328c30.388-77.702,33.919-143.443,33.95-144.099
				c0.527-10.739,9.659-19.032,20.396-18.518c10.741,0.516,19.034,9.625,18.529,20.366c-0.136,2.891-3.697,71.746-36.092,155.182
				c-19.091,49.172-44.306,93.252-74.944,131.016c-38.509,47.465-85.656,84.955-140.133,111.43
				c-55.859,27.147-131.961,43.005-226.188,47.132C2531.479,1810.495,2514.244,1810.861,2496.564,1810.861z"/>
		</g>
		<g style="opacity:0.3;">
			<path style="fill:#650000;" d="M3028.377,1442.312l-7.906,113.401v0.056c-152.538,380.176-488.178,364.7-1008.811,247.791
				c-175.085-39.304-290.713-96.533-369.209-161.279c651.071,149.81,1188.684,165.899,1363.657-245.62L3028.377,1442.312z"/>
		</g>
		<g style="opacity:0.3;">
			<path style="fill:#7F164B;" d="M1794.246,1733.971c0,0,931.021,458.509,1233.629-33.326l-7.293-129.975
				C2875.838,1978.923,2299.204,1911.437,1794.246,1733.971z"/>
			<path style="fill:#650000;" d="M2547.5,1931.002c-76.738,0-160.459-8.848-250.454-26.524
				c-139.969-27.493-269.544-71.704-353.597-103.951c-91.076-34.941-149.85-63.771-150.433-64.059l2.152-5.123
				c200.194,70.357,492.332,151.387,747.178,137.841c249.854-13.278,409.873-114.026,475.613-299.446l4.627-13.05l8.117,144.67
				l-0.457,0.744c-69.445,112.869-177.861,184.859-322.238,213.97C2658.636,1926.028,2605.029,1931.002,2547.5,1931.002z
				 M1846.309,1754.713c25.321,11.082,59.14,25.274,99.237,40.655c83.851,32.165,213.101,76.26,352.674,103.666
				c245.734,48.253,571.183,52.828,726.828-199.106l-6.495-115.753c-35.423,91.792-95.334,162.94-178.23,211.6
				c-78.495,46.075-178.649,72.645-297.68,78.97C2308.564,1887.187,2043.421,1820.219,1846.309,1754.713z"/>
		</g>
		<g>
			<path style="fill:#650000;" d="M1088.066,2434.243c5.113-6.156,10.685-11.811,16.36-17.353
				c5.693-5.523,11.577-10.837,17.594-16.006c11.993-10.383,24.689-19.998,37.459-29.532c12.79-9.513,25.796-18.79,39.072-27.771
				c13.289-8.967,26.818-17.673,40.969-25.7c1.354-0.769,3.075-0.293,3.843,1.061c0.55,0.97,0.46,2.13-0.131,2.991
				c-9.236,13.393-19.093,26.107-29.19,38.56c-10.11,12.438-20.491,24.582-31.087,36.489c-10.616,11.886-21.306,23.691-32.7,34.728
				c-5.676,5.542-11.485,10.937-17.486,16.124c-6.018,5.168-12.139,10.223-18.72,14.777c-8.816,6.102-20.91,3.9-27.011-4.916
				C1081.97,2450.372,1082.646,2440.776,1088.066,2434.243z"/>
		</g>
		<g>
			<path style="fill:#EDB426;" d="M2368.287,1913.343c0.724,22.602-19.151,40.306-41.531,37.077l-97.257-14.085
				c-17.481-2.505-30.619-17.202-31.176-34.85l-0.891-29.561l-3.786-126.094c-0.724-22.602,19.151-40.361,41.53-37.133
				l97.313,14.141c17.425,2.561,30.563,17.258,31.12,34.905l0.278,9.52L2368.287,1913.343z"/>
			<path style="fill:#650000;" d="M2331.998,1953.58c-1.872,0-3.756-0.134-5.639-0.405l-97.259-14.085
				c-18.843-2.701-32.958-18.48-33.559-37.518l-4.676-155.659c-0.371-11.587,4.373-22.67,13.019-30.403
				c8.65-7.738,20.204-11.226,31.691-9.568l97.315,14.141c18.814,2.765,32.902,18.566,33.502,37.572l0.278,9.527l4.397,146.072
				c0.37,11.575-4.365,22.64-12.992,30.356C2350.842,1950.082,2341.57,1953.58,2331.998,1953.58z M2229.956,1711.104
				c-8.202,0-16.151,3.001-22.36,8.555c-7.414,6.632-11.484,16.139-11.165,26.081l4.676,155.66
				c0.515,16.327,12.622,29.861,28.788,32.18l97.262,14.085c9.867,1.429,19.788-1.565,27.21-8.204
				c7.396-6.616,11.457-16.104,11.139-26.029v-0.005l-4.397-146.08l-0.278-9.523c-0.515-16.302-12.603-29.86-28.742-32.232
				l-97.309-14.14C2233.169,1711.219,2231.558,1711.104,2229.956,1711.104z"/>
		</g>
		<g style="opacity:0.6;">
			<path style="fill:#FFFFFF;" d="M2368.287,1913.343c0.167,5.122-0.724,10.021-2.561,14.419l-4.008-131.996
				c-0.501-17.648-13.639-32.345-31.12-34.906l-97.257-14.084c-17.258-2.561-33.069,7.46-38.97,22.547l-0.724-23.493
				c-0.724-22.602,19.151-40.361,41.53-37.133l97.313,14.141c17.425,2.561,30.563,17.258,31.12,34.905L2368.287,1913.343z"/>
		</g>
		<g>
			<path style="fill:#650000;" d="M2287.167,1172.976l-4.454-145.245l-0.223-6.402c-2.672-17.648-12.303-29.84-29.283-36.353
				c-4.008-1.559-8.295-2.561-12.582-3.173l-410.795-59.624c-28.615-4.175-54.056,18.538-53.166,47.432l3.953,129.88l-88.183-12.804
				l-2.951-96.923c-2.116-69.254,58.844-123.589,127.431-113.568l432.897,63.298c44.592,6.514,78.106,44.091,79.498,89.129
				l4.621,151.091L2287.167,1172.976z"/>
		</g>
		<g style="opacity:0.5;">
			<path style="fill:#FFFFFF;" d="M1816.437,892.605l432.897,63.298c44.592,6.513,78.106,44.091,79.498,89.129l4.09,133.732
				l6.577,0.947l-4.621-151.09c-1.392-45.038-34.906-82.616-79.497-89.129l-432.898-63.298
				c-56.984-8.325-108.664,27.789-123.319,79.96C1719.073,913.071,1765.648,885.185,1816.437,892.605z"/>
		</g>
		<g style="opacity:0.5;">
			<path style="fill:#FFFFFF;" d="M1782.884,960.572c-4.468,7.368-6.986,16.071-6.697,25.449l3.425,112.515l6.573,0.955
				l-3.952-129.88C1782.137,966.511,1782.402,963.503,1782.884,960.572z"/>
		</g>
		<g>
			<path style="fill:#650000;" d="M2332.01,1970.296c-2.673,0-5.361-0.191-8.048-0.58l-97.277-14.082
				c-26.885-3.893-46.995-26.425-47.818-53.577l-4.72-155.658c-0.502-16.54,6.292-32.346,18.639-43.362
				c12.348-11.017,28.822-15.972,45.199-13.597l97.277,14.114c26.874,3.899,46.978,26.431,47.801,53.573l4.72,155.627
				c0.502,16.537-6.289,32.34-18.633,43.356C2358.832,1965.319,2345.629,1970.296,2332.01,1970.296z M2229.848,1727.819
				c-5.415,0-9.211,2.593-11.118,4.295c-2.192,1.956-5.839,6.26-5.632,13.103l4.72,155.658c0.249,8.205,6.326,15.015,14.451,16.19
				l97.277,14.082l0,0c6.777,0.982,11.463-2.153,13.655-4.11c2.191-1.957,5.837-6.26,5.63-13.102l-4.72-155.627
				c-0.249-8.202-6.324-15.011-14.445-16.188l-97.277-14.114C2231.506,1727.878,2230.658,1727.819,2229.848,1727.819z"/>
		</g>
		<g>
			<path style="fill:#650000;" d="M1800.563,875c5.386,0,10.839,0.389,16.353,1.194l432.896,63.298
				c44.592,6.514,78.106,44.092,79.498,89.129l4.62,151.091l-46.763-6.736l-4.454-145.245l-0.223-6.402
				c-2.672-17.647-12.304-29.839-29.283-36.353c-4.008-1.559-8.295-2.561-12.581-3.173l-410.796-59.624
				c-2.291-0.334-4.564-0.496-6.804-0.496c-25.719,0-47.181,21.348-46.361,47.928l3.952,129.88l-88.183-12.804l-2.95-96.923
				C1687.54,926.076,1738.947,875,1800.563,875 M1800.563,836.03c-20.548,0-40.522,4.137-59.369,12.297
				c-18.227,7.891-34.503,19.144-48.375,33.446c-13.801,14.23-24.494,30.734-31.781,49.057
				c-7.604,19.119-11.139,39.348-10.504,60.123l2.949,96.919c0.576,18.901,14.639,34.662,33.353,37.38l88.183,12.804
				c1.867,0.271,3.74,0.404,5.601,0.404c9.505,0,18.756-3.479,25.943-9.892c8.596-7.67,13.357-18.749,13.008-30.264l-3.953-129.88
				c-0.065-2.123,0.641-3.954,2.098-5.456c0.839-0.865,2.645-2.317,5.313-2.317c0.38,0,0.776,0.029,1.176,0.088l410.825,59.628
				c0.029,0.005,0.059,0.009,0.088,0.013c2.304,0.329,3.542,0.749,3.967,0.915c0.056,0.021,0.111,0.043,0.166,0.063
				c3.05,1.17,3.869,1.71,4.389,3.995l0.126,3.635l4.452,145.181c0.58,18.915,14.665,34.679,33.395,37.377l46.763,6.736
				c1.854,0.267,3.711,0.398,5.558,0.398c9.513,0,18.772-3.485,25.962-9.908c8.586-7.671,13.341-18.745,12.988-30.253l-4.62-151.091
				c-0.955-30.927-12.823-60.669-33.418-83.759s-48.792-38.269-79.398-42.739l-432.891-63.297
				C1815.265,836.569,1807.867,836.03,1800.563,836.03L1800.563,836.03z"/>
		</g>
		<g>
			<path style="fill:#650000;" d="M2209.662,1175.861h-38.969v-98.549l-372.833-51.938l5.377-38.598l389.629,54.278
				c9.629,1.342,16.796,9.576,16.796,19.299V1175.861z"/>
		</g>
		<g style="opacity:0.3;">
			<path style="fill:#7F164B;" d="M2368.287,1913.343c0.724,22.602-19.151,40.306-41.531,37.077l-97.257-14.085
				c-17.481-2.505-30.619-17.202-31.176-34.85l-0.891-29.561c152.482,68.308,166.456-104.661,166.456-104.661L2368.287,1913.343z"/>
			<path style="fill:#650000;" d="M2331.998,1953.58c-1.872,0-3.756-0.134-5.639-0.405l-97.259-14.085
				c-18.843-2.701-32.958-18.479-33.559-37.518l-1.024-34.005l4.054,1.816c43.097,19.306,78.918,20.829,106.475,4.525
				c49.202-29.108,56.006-106.097,56.069-106.871l5.557,0.141l4.397,146.08c0.369,11.573-4.366,22.637-12.992,30.352
				C2350.842,1950.082,2341.57,1953.58,2331.998,1953.58z M2200.349,1876.237l0.758,25.163
				c0.515,16.327,12.622,29.861,28.788,32.179l97.262,14.086c9.867,1.429,19.788-1.565,27.21-8.204
				c7.396-6.616,11.457-16.104,11.139-26.029v-0.005l-3.585-119.077c-1.292,5.239-2.918,10.983-4.958,16.992
				c-10.647,31.361-27.612,54.649-49.062,67.347C2279.578,1895.454,2243.41,1894.624,2200.349,1876.237z"/>
		</g>
	</g>
	<g style="opacity:0.2;">
		<ellipse style="fill:#650000;" cx="1955.235" cy="3457.959" rx="790.735" ry="102.567"/>
	</g>
</g>
</svg>
